HIERARCHY
ROOT SpineBase
{
  OFFSET 0.000000 0.000000 0.000000
  CHANNELS 6 Xposition Yposition Zposition Zrotation Xrotation Yrotation
  JOINT SpineMid
  {
    OFFSET -0.000000 32.084943 0.000000
    CHANNELS 3 Zrotation Xrotation Yrotation
    JOINT SpineShoulder
    {
      OFFSET -0.011785 23.987665 -0.886280
      CHANNELS 3 Zrotation Xrotation Yrotation
      JOINT Neck
      {
        OFFSET -0.032064 8.006239 -0.638887
        CHANNELS 3 Zrotation Xrotation Yrotation
        JOINT Head
        {
          OFFSET -6.372631 11.368401 1.104322
          CHANNELS 3 Zrotation Xrotation Yrotation
          End Site
          {
            OFFSET 0 0 0
          }
        }
      }
      JOINT ShoulderLeft
      {
        OFFSET -9.453443 -6.417992 13.168525
        CHANNELS 3 Zrotation Xrotation Yrotation
        JOINT ElbowLeft
        {
          OFFSET 0.221902 -27.726275 -4.410394
          CHANNELS 3 Zrotation Xrotation Yrotation
          JOINT WristLeft
          {
            OFFSET -3.088879 -22.775326 2.469183
            CHANNELS 3 Zrotation Xrotation Yrotation
            JOINT HandLeft
            {
              OFFSET -1.721985 -6.967643 -2.963168
              CHANNELS 3 Zrotation Xrotation Yrotation
              JOINT HandTipLeft
              {
                OFFSET -0.805545 -6.851952 -1.208139
                CHANNELS 3 Zrotation Xrotation Yrotation
                End Site
                {
                  OFFSET 0 0 0
                }
              }
              JOINT ThumbLeft
              {
                OFFSET 0.911922 -0.843503 -5.402226
                CHANNELS 3 Zrotation Xrotation Yrotation
                End Site
                {
                  OFFSET 0 0 0
                }
              }
            }
          }
        }
      }
      JOINT ShoulderRight
      {
        OFFSET 10.344444 -1.047059 -10.213652
        CHANNELS 3 Zrotation Xrotation Yrotation
        JOINT ElbowRight
        {
          OFFSET 5.108924 -26.015372 -7.081377
          CHANNELS 3 Zrotation Xrotation Yrotation
          JOINT WristRight
          {
            OFFSET -4.045545 -26.426247 -6.805105
            CHANNELS 3 Zrotation Xrotation Yrotation
            JOINT HandRight
            {
              OFFSET -2.888898 -6.298548 -2.001401
              CHANNELS 3 Zrotation Xrotation Yrotation
              JOINT HandTipRight
              {
                OFFSET -5.436451 -6.549095 -3.128608
                CHANNELS 3 Zrotation Xrotation Yrotation
                End Site
                {
                  OFFSET 0 0 0
                }
              }
              JOINT ThumbRight
              {
                OFFSET 1.124162 -2.191022 -1.567472
                CHANNELS 3 Zrotation Xrotation Yrotation
                End Site
                {
                  OFFSET 0 0 0
                }
              }
            }
          }
        }
      }
    }
  }
  JOINT HipLeft
  {
    OFFSET -4.913254 0.801697 1.168109
    CHANNELS 3 Zrotation Xrotation Yrotation
    JOINT KneeLeft
    {
      OFFSET 1.703288 -38.350096 0.874349
      CHANNELS 3 Zrotation Xrotation Yrotation
      JOINT AnkleLeft
      {
        OFFSET 17.500747 -42.614989 1.933242
        CHANNELS 3 Zrotation Xrotation Yrotation
        JOINT FootLeft
        {
          OFFSET -7.745005 -4.141324 -3.342684
          CHANNELS 3 Zrotation Xrotation Yrotation
          End Site
          {
            OFFSET 0 0 0
          }
        }
      }
    }
  }
  JOINT HipRight
  {
    OFFSET 3.838610 2.175425 -7.838758
    CHANNELS 3 Zrotation Xrotation Yrotation
    JOINT KneeRight
    {
      OFFSET 6.917150 -34.478164 -9.984358
      CHANNELS 3 Zrotation Xrotation Yrotation
      JOINT AnkleRight
      {
        OFFSET 10.713572 -44.997284 8.915615
        CHANNELS 3 Zrotation Xrotation Yrotation
        JOINT FootRight
        {
          OFFSET -4.966596 -4.417298 -6.222959
          CHANNELS 3 Zrotation Xrotation Yrotation
          End Site
          {
            OFFSET 0 0 0
          }
        }
      }
    }
  }
}
MOTION
Frames: 12
Frame Time: 0.033333
56.061228 84.904392 339.646183 0.000000 0.000000 45.822672 -0.000000 0.000000 -45.822672 -0.000000 0.000000 0.000000 -0.000000 0.000000 0.000000 0.000000 0.000000 0.000000 -0.000000 0.000000 0.000000 -0.000000 0.000000 0.000000 -0.000000 0.000000 0.000000 -0.000000 0.000000 0.000000 0.000000 0.000000 0.000000 0.000000 0.000000 0.000000 -0.000000 0.000000 0.000000 -0.000000 0.000000 0.000000 -0.000000 0.000000 0.000000 -0.000000 0.000000 0.000000 0.000000 0.000000 0.000000 0.000000 0.000000 0.000000 -0.000000 0.000000 -45.822672 -0.000000 0.000000 0.000000 -0.000000 0.000000 0.000000 0.000000 0.000000 0.000000 -0.000000 0.000000 -45.822672 -0.000000 0.000000 0.000000 -0.000000 0.000000 0.000000 0.000000 0.000000 0.000000
56.173300 84.926695 339.523935 0.013735 0.047425 45.595036 -0.043492 -0.023372 -45.595051 -0.000000 0.000000 0.000000 -0.000000 0.000000 0.000000 0.000000 0.000000 0.000000 -0.000000 0.000000 0.000000 -0.000000 0.000000 0.000000 -0.000000 0.000000 0.000000 -1.076527 -0.310842 0.223303 0.000000 0.000000 0.000000 0.000000 0.000000 0.000000 -0.000000 0.000000 0.000000 -0.000000 0.000000 0.000000 0.989628 -2.547810 0.886066 -0.146171 3.147373 -1.761084 0.000000 0.000000 0.000000 0.000000 0.000000 0.000000 -0.043492 -0.023372 -45.595051 -0.000000 0.000000 0.000000 0.682568 1.443461 -3.261501 0.000000 0.000000 0.000000 -0.043492 -0.023372 -45.595051 -0.000000 0.000000 0.000000 -1.361533 -3.846197 6.409656 0.000000 0.000000 0.000000
56.271020 84.946754 339.422186 0.021635 0.086835 45.372303 -0.076997 -0.045604 -45.372350 -0.000000 0.000000 0.000000 -0.000000 0.000000 0.000000 0.000000 0.000000 0.000000 -0.000000 0.000000 0.000000 -0.000000 0.000000 0.000000 0.533713 -0.642394 -0.065453 -2.512028 0.202839 0.485568 0.000000 0.000000 0.000000 0.000000 0.000000 0.000000 -0.000000 0.000000 0.000000 -0.000000 0.000000 0.000000 1.672437 -4.321014 1.543193 0.009993 5.411195 -3.203105 0.000000 0.000000 0.000000 0.000000 0.000000 0.000000 -0.076997 -0.045604 -45.372350 -0.000000 0.000000 0.000000 1.396817 2.518443 -5.893515 0.000000 0.000000 0.000000 -0.076997 -0.045604 -45.372350 -0.000000 0.000000 0.000000 -2.169278 -7.061746 11.596504 0.000000 0.000000 0.000000
56.354386 84.964569 339.340933 0.023696 0.118224 45.154756 -0.100533 -0.066570 -45.154839 -0.000000 0.000000 0.000000 -0.000000 0.000000 0.000000 0.000000 0.000000 0.000000 -0.000000 0.000000 0.000000 -0.379632 -0.801707 0.064840 1.067476 -0.040781 -0.159796 -3.381596 0.471061 0.637501 0.000000 0.000000 0.000000 0.000000 0.000000 0.000000 -0.000000 0.000000 0.000000 -0.000000 0.000000 0.000000 2.053677 -5.400745 1.968681 0.423754 6.880375 -4.359346 0.000000 0.000000 0.000000 0.000000 0.000000 0.000000 -0.100533 -0.066570 -45.154839 -0.000000 0.000000 0.000000 2.110401 3.260539 -7.941636 0.000000 0.000000 0.000000 -0.100533 -0.066570 -45.154839 -0.000000 0.000000 0.000000 -2.603973 -9.480816 15.462553 0.000000 0.000000 0.000000
56.423398 84.980140 339.280179 0.019916 0.141587 44.942672 -0.114114 -0.086149 -44.942783 -0.000000 0.000000 0.000000 -0.000000 0.000000 0.000000 0.000000 0.000000 0.000000 -0.000000 0.000000 0.000000 -0.539577 -0.950107 0.065787 1.311866 -0.015739 -0.171721 -3.983955 0.871484 0.722795 0.000000 0.000000 0.000000 0.000000 0.000000 0.000000 -0.000000 0.000000 0.000000 -0.961436 0.308813 0.202503 3.077237 -6.155946 1.976191 1.071995 7.614195 -5.243510 0.000000 0.000000 0.000000 0.000000 0.000000 0.000000 -0.114114 -0.086149 -44.942783 -0.000000 0.000000 0.000000 2.805844 3.700911 -9.444899 0.000000 0.000000 0.000000 -0.114114 -0.086149 -44.942783 0.214604 0.874318 0.249323 -3.106754 -11.926115 17.718026 0.000000 0.000000 0.000000
56.478058 84.993467 339.239922 0.010291 0.156921 44.736318 -0.117758 -0.104226 -44.736439 -0.000000 0.000000 0.000000 -0.000000 0.000000 0.000000 0.000000 0.000000 0.000000 -0.000000 0.000000 0.000000 -0.716047 -1.039164 0.056711 1.505112 0.023572 -0.162557 -4.310861 1.415174 0.736999 0.000000 0.000000 0.000000 0.000000 0.000000 0.000000 -0.000000 0.000000 0.000000 -1.202233 0.469237 0.242046 3.095922 -6.127754 1.909088 1.950703 7.641677 -5.851809 0.000000 0.000000 0.000000 0.000000 0.000000 0.000000 -0.930431 0.049609 -44.773015 0.685280 0.463146 0.033419 3.476531 3.862969 -10.431444 0.000000 0.000000 0.000000 -0.117758 -0.104226 -44.736439 0.220205 0.939616 0.265857 -3.251857 -12.765432 18.999209 0.000000 0.000000 0.000000
56.528236 85.002417 339.212466 0.008715 0.183190 44.395613 -0.134388 -0.124797 -44.395773 -0.000000 0.000000 0.000000 -0.000000 0.000000 0.000000 0.000000 0.000000 0.000000 -0.000000 0.000000 0.000000 -0.948699 -0.878798 0.009039 1.542069 -0.598723 0.088245 -4.207133 2.175368 0.562996 0.000000 0.000000 0.000000 0.000000 0.000000 0.000000 -0.000000 0.000000 0.000000 -1.482831 0.451527 0.317637 3.618456 -6.583836 2.001374 3.011350 7.686209 -6.499339 0.000000 0.000000 0.000000 0.000000 0.000000 0.000000 -1.030220 -0.061932 -44.438677 0.126573 -0.106620 -0.268312 4.901460 4.896416 -11.718710 0.000000 0.000000 0.000000 -0.134388 -0.124797 -44.395773 0.222751 0.917465 0.261092 -3.452565 -12.615891 19.058739 0.000000 0.000000 0.000000
56.554425 85.026936 339.199571 -0.010802 0.193153 44.240043 -0.127018 -0.145915 -44.240187 -0.000000 0.000000 0.000000 -0.000000 0.000000 0.000000 0.000000 0.000000 0.000000 -0.000000 0.000000 0.000000 -1.200530 -0.671223 -0.046063 1.875180 -1.265655 0.229532 -3.677485 4.637335 0.202828 0.000000 0.000000 0.000000 0.000000 0.000000 0.000000 -0.000000 0.000000 0.000000 -1.443837 -0.217274 0.401770 2.481493 -6.026853 2.217051 5.337426 7.863372 -7.893921 0.000000 0.000000 0.000000 0.000000 0.000000 0.000000 -1.035255 -0.193163 -44.286610 -0.070051 -0.086633 -0.298009 5.607028 3.397468 -9.289485 0.000000 0.000000 0.000000 -0.127018 -0.145915 -44.240187 0.190532 0.865378 0.242624 -3.379678 -12.008577 18.223598 0.000000 0.000000 0.000000
56.577953 85.033427 339.180127 -0.015351 0.235194 44.065926 -0.152544 -0.179672 -44.066134 -0.000000 0.000000 0.000000 -0.000000 0.000000 0.000000 0.000000 0.000000 0.000000 -0.000000 0.000000 0.000000 -1.446035 -0.896409 -0.046397 1.974355 -0.538588 0.153204 -2.729408 7.588411 -0.281818 0.000000 0.000000 0.000000 0.000000 0.000000 0.000000 -0.000000 0.000000 0.000000 -2.083850 0.698128 0.440578 1.843852 -4.915995 1.588968 6.464049 6.094941 -7.393292 0.000000 0.000000 0.000000 0.000000 0.000000 0.000000 -1.051180 -0.375329 -44.116111 -0.338325 0.033924 -0.291628 6.993520 5.404177 -14.589105 0.000000 0.000000 0.000000 -0.152544 -0.179672 -44.066134 -0.000000 0.000000 0.000000 -2.971110 -9.473835 15.916351 0.000000 0.000000 0.000000
56.586904 85.021074 339.255619 -0.026076 0.166229 44.050299 -0.096836 -0.137604 -44.050377 -0.000000 0.000000 0.000000 -0.838407 -0.276620 -0.075971 0.000000 0.000000 0.000000 -0.000000 0.000000 0.000000 -1.701756 -1.632883 0.012666 2.169753 3.545334 -0.748678 -3.919428 2.527666 0.753484 0.000000 0.000000 0.000000 0.000000 0.000000 0.000000 0.878511 -0.277933 -0.291338 -3.581598 2.183429 0.748597 0.554725 -1.840861 0.209139 7.721527 4.853750 -7.813761 0.000000 0.000000 0.000000 0.000000 0.000000 0.000000 -0.096836 -0.137604 -44.050377 -1.001774 -0.681362 -0.332325 7.074005 4.153775 -12.176168 0.000000 0.000000 0.000000 -0.096836 -0.137604 -44.050377 -0.000000 0.000000 0.000000 -3.157557 -7.535664 13.501651 0.000000 0.000000 0.000000
56.578690 84.992600 339.364681 -0.094896 0.047978 44.009069 0.034918 -0.100439 -44.008998 -0.000000 0.000000 0.000000 -0.928734 -0.297955 -0.079599 0.000000 0.000000 0.000000 -0.000000 0.000000 0.000000 -1.886970 -2.429410 0.084544 1.855679 6.721726 -1.186780 -3.530896 -2.133535 1.198788 0.000000 0.000000 0.000000 0.000000 0.000000 0.000000 1.329951 -0.974487 -0.542109 -4.606828 5.438791 0.881611 -4.279389 8.379212 -3.092190 11.890185 -3.268184 -4.552197 0.000000 0.000000 0.000000 0.000000 0.000000 0.000000 0.034918 -0.100439 -44.008998 -1.090947 -0.625013 -0.313267 7.479848 4.747922 -13.825582 0.000000 0.000000 0.000000 0.034918 -0.100439 -44.008998 -0.000000 0.000000 0.000000 -2.996220 -6.140153 11.463992 0.000000 0.000000 0.000000
56.519164 84.931487 339.586884 -0.248296 -0.180974 43.938891 0.304369 -0.041975 -43.939171 -0.000000 0.000000 0.000000 -0.997172 -0.326606 -0.089518 0.000000 0.000000 0.000000 -0.000000 0.000000 0.000000 -1.893147 -3.062076 0.158706 1.307853 8.905923 -1.355203 -1.028147 -8.159647 1.566986 0.000000 0.000000 0.000000 0.000000 0.000000 0.000000 1.949790 -0.821688 -0.677218 -5.515216 8.809000 0.658950 -5.108920 9.377659 -4.275147 12.286816 -3.548570 -5.104793 0.000000 0.000000 0.000000 0.000000 0.000000 0.000000 0.304369 -0.041975 -43.939171 -1.134959 -0.563305 -0.289516 7.647811 4.987206 -14.574695 0.000000 0.000000 0.000000 0.304369 -0.041975 -43.939171 -0.000000 0.000000 0.000000 -2.612044 -5.540328 10.195941 0.000000 0.000000 0.000000
